<?xml version="1.0" encoding="UTF-8"?>
<svg version="1.1" xmlns="http://www.w3.org/2000/svg" width="32" height="35">
<path d="M0 0 C10.56 0 21.12 0 32 0 C32 11.55 32 23.1 32 35 C21.44 35 10.88 35 0 35 C0 23.45 0 11.9 0 0 Z " fill="#2D3035" transform="translate(0,0)"/>
<path d="M0 0 C10.56 0 21.12 0 32 0 C32 11.55 32 23.1 32 35 C28.04 35 24.08 35 20 35 C20.33 34.34 20.66 33.68 21 33 C21.66 33 22.32 33 23 33 C23.33 30.69 23.66 28.38 24 26 C25.32 26 26.64 26 28 26 C26.6910428 22.87802522 26.6910428 22.87802522 24 21 C24 20.34 24 19.68 24 19 C24.99 19.33 25.98 19.66 27 20 C27 14.72 27 9.44 27 4 C25.02 4.99 25.02 4.99 23 6 C22.401875 5.34 21.80375 4.68 21.1875 4 C19.12498166 1.6626154 19.12498166 1.6626154 16 2 C15.34 3.32 14.68 4.64 14 6 C11.03 5.505 11.03 5.505 8 5 C8.309375 6.19625 8.61875 7.3925 8.9375 8.625 C10.6885818 15.73010888 10.6885818 15.73010888 11 19 C10.34 19.66 9.68 20.32 9 21 C8.01 21 7.02 21 6 21 C5.93941406 21.75925781 5.87882813 22.51851562 5.81640625 23.30078125 C5.73261719 24.29464844 5.64882812 25.28851562 5.5625 26.3125 C5.48128906 27.29863281 5.40007813 28.28476562 5.31640625 29.30078125 C5 32 5 32 4 35 C2.68 35 1.36 35 0 35 C0 23.45 0 11.9 0 0 Z " fill="#47514E" transform="translate(0,0)"/>
<path d="M0 0 C2.75195334 0.28468483 3.79266519 0.76076753 5.625 2.875 C7.62592372 7.4225539 8.27165412 12.10722946 9 17 C7.02 16.67 5.04 16.34 3 16 C2.67 18.31 2.34 20.62 2 23 C2.99 23 3.98 23 5 23 C4.8125 24.8125 4.8125 24.8125 4 27 C-0.09853455 29.94253762 -2.01647998 30 -7 30 C-6.02984658 24.17907948 -4.32619345 21.03778055 0 17 C-0.99 17 -1.98 17 -3 17 C-3.50833591 15.75336669 -4.00631145 14.50250613 -4.5 13.25 C-4.7784375 12.55390625 -5.056875 11.8578125 -5.34375 11.140625 C-6 9 -6 9 -6 5 C-4.68 5 -3.36 5 -2 5 C-1.34 3.35 -0.68 1.7 0 0 Z " fill="#A48A70" transform="translate(16,1)"/>
<path d="M0 0 C4.62 0 9.24 0 14 0 C14 11.55 14 23.1 14 35 C10.04 35 6.08 35 2 35 C2.33 34.34 2.66 33.68 3 33 C3.66 33 4.32 33 5 33 C5.33 30.69 5.66 28.38 6 26 C7.32 26 8.64 26 10 26 C8.6910428 22.87802522 8.6910428 22.87802522 6 21 C6 20.34 6 19.68 6 19 C6.99 19.33 7.98 19.66 9 20 C9 14.72 9 9.44 9 4 C7.02 4.99 7.02 4.99 5 6 C3.35 4.02 1.7 2.04 0 0 Z " fill="#31373B" transform="translate(18,0)"/>
<path d="M0 0 C4.29 0 8.58 0 13 0 C12.01 0.33 11.02 0.66 10 1 C10 1.66 10 2.32 10 3 C8.68799596 4.35432675 7.35368596 5.68733482 6 7 C5.67 7.66 5.34 8.32 5 9 C4.34 9 3.68 9 3 9 C3 17.58 3 26.16 3 35 C2.01 35 1.02 35 0 35 C0 23.45 0 11.9 0 0 Z " fill="#14191A" transform="translate(0,0)"/>
<path d="M0 0 C0.99 0 1.98 0 3 0 C4.52846661 3.05693322 4.23242445 5.62984547 4 9 C3 10.33333333 2 11.66666667 1 13 C0.74936268 16.66714849 0.74936268 16.66714849 1 20 C1.99 20 2.98 20 4 20 C3.8125 21.8125 3.8125 21.8125 3 24 C-1.09853455 26.94253762 -3.01647998 27 -8 27 C-7.44509362 23.67056175 -6.79000672 20.88389972 -5 18 C-4.01 17.34 -3.02 16.68 -2 16 C-1.32843384 14.06381575 -1.32843384 14.06381575 -1 12 C-0.67 11.01 -0.34 10.02 0 9 C-0.13019419 6.9670885 -0.13019419 6.9670885 -0.5 4.875 C-0.665 3.59625 -0.83 2.3175 -1 1 C-0.67 0.67 -0.34 0.34 0 0 Z " fill="#987159" transform="translate(17,4)"/>
<path d="M0 0 C0.99 0 1.98 0 3 0 C3 11.55 3 23.1 3 35 C1.68 34.67 0.36 34.34 -1 34 C-0.67 22.78 -0.34 11.56 0 0 Z " fill="#000000" transform="translate(29,0)"/>
<path d="M0 0 C1.53266582 3.06533164 1.10276471 6.26754272 1.0625 9.625 C1.05798828 10.33140625 1.05347656 11.0378125 1.04882812 11.765625 C1.03703875 13.51045275 1.01910324 15.255237 1 17 C-0.32 16.34 -1.64 15.68 -3 15 C-3 15.66 -3 16.32 -3 17 C-1.68 17.66 -0.36 18.32 1 19 C1 19.99 1 20.98 1 22 C-0.32 21.34 -1.64 20.68 -3 20 C-3 19.34 -3 18.68 -3 18 C-4.98 18 -6.96 18 -9 18 C-8.67 16.35 -8.34 14.7 -8 13 C-7.01 12.67 -6.02 12.34 -5 12 C-4.01 12.66 -3.02 13.32 -2 14 C-2.22816406 13.22914062 -2.45632812 12.45828125 -2.69140625 11.6640625 C-3.12259766 10.15972656 -3.12259766 10.15972656 -3.5625 8.625 C-3.85253906 7.62726562 -4.14257812 6.62953125 -4.44140625 5.6015625 C-5 3 -5 3 -4 1 C-2 0 -2 0 0 0 Z " fill="#553C35" transform="translate(27,4)"/>
<path d="M0 0 C0.99 0.33 1.98 0.66 3 1 C3.144375 2.2375 3.28875 3.475 3.4375 4.75 C3.78688502 7.56504499 4.20379366 10.2701497 5 13 C5.99 13 6.98 13 8 13 C7.34 14.32 6.68 15.64 6 17 C5.34 17 4.68 17 4 17 C3.01 19.475 3.01 19.475 2 22 C1.34 22 0.68 22 0 22 C0 22.99 0 23.98 0 25 C-0.66 25 -1.32 25 -2 25 C-2 26.65 -2 28.3 -2 30 C-2.66 30 -3.32 30 -4 30 C-3.85866501 28.22880197 -3.71176792 26.45804713 -3.5625 24.6875 C-3.48128906 23.70136719 -3.40007813 22.71523438 -3.31640625 21.69921875 C-3 19 -3 19 -2 16 C0.0625 14.8125 0.0625 14.8125 2 14 C1.43260132 9.87026372 1.43260132 9.87026372 0 6 C-0.039992 4.00039988 -0.04346799 1.99952758 0 0 Z " fill="#262C31" transform="translate(8,5)"/>
<path d="M0 0 C-1.98 2.97 -1.98 2.97 -4 6 C-6.97 5.505 -6.97 5.505 -10 5 C-9.690625 6.19625 -9.38125 7.3925 -9.0625 8.625 C-8.19968427 12.06402439 -7.52629514 15.49136573 -7 19 C-7.66 19 -8.32 19 -9 19 C-12.66641647 14.62850344 -12.31749488 10.39741292 -12 5 C-10.68 4.34 -9.36 3.68 -8 3 C-8 2.34 -8 1.68 -8 1 C-5.07175348 0.02391783 -3.04386724 -0.08226668 0 0 Z " fill="#71695A" transform="translate(18,0)"/>
<path d="M0 0 C3.63 0 7.26 0 11 0 C11 6.93 11 13.86 11 21 C10.67 21 10.34 21 10 21 C9.67 15.39 9.34 9.78 9 4 C7.02 4.99 7.02 4.99 5 6 C3.35 4.02 1.7 2.04 0 0 Z " fill="#362A28" transform="translate(18,0)"/>
<path d="M0 0 C0.33 0.99 0.66 1.98 1 3 C2.32 3 3.64 3 5 3 C5.33 2.01 5.66 1.02 6 0 C6.41713515 1.43146378 6.8080497 2.87058886 7.1875 4.3125 C7.40792969 5.11300781 7.62835937 5.91351563 7.85546875 6.73828125 C8 9 8 9 6.67578125 10.79296875 C5 12 5 12 3 12 C2.49166409 10.75336669 1.99368855 9.50250613 1.5 8.25 C1.2215625 7.55390625 0.943125 6.8578125 0.65625 6.140625 C0 4 0 4 0 0 Z " fill="#AC826D" transform="translate(10,6)"/>
<path d="M0 0 C0.99 0 1.98 0 3 0 C4.5547669 3.10953379 4.28644437 5.56266761 4 9 C2 12.4375 2 12.4375 0 15 C-0.66 14.34 -1.32 13.68 -2 13 C-1.649375 12.505 -1.29875 12.01 -0.9375 11.5 C0.44972255 7.80073987 -0.4263757 4.88789806 -1 1 C-0.67 0.67 -0.34 0.34 0 0 Z " fill="#805E4A" transform="translate(17,4)"/>
<path d="M0 0 C0.99 0.66 1.98 1.32 3 2 C3 2.99 3 3.98 3 5 C4.32 5.66 5.64 6.32 7 7 C7 7.99 7 8.98 7 10 C5.68 9.34 4.36 8.68 3 8 C3 7.34 3 6.68 3 6 C1.02 6 -0.96 6 -3 6 C-2.625 3.5625 -2.625 3.5625 -2 1 C-1.34 0.67 -0.68 0.34 0 0 Z " fill="#636A68" transform="translate(21,16)"/>
<path d="M0 0 C0.598125 0.226875 1.19625 0.45375 1.8125 0.6875 C1.625 2.5 1.625 2.5 0.8125 4.6875 C-1.625 6.5 -1.625 6.5 -4.1875 7.6875 C-4.8475 7.3575 -5.5075 7.0275 -6.1875 6.6875 C-5.78066505 4.32785727 -5.28935661 2.82815912 -3.875 0.875 C-2.1875 -0.3125 -2.1875 -0.3125 0 0 Z " fill="#666864" transform="translate(19.1875,23.3125)"/>
<path d="M0 0 C-1.98 2.97 -1.98 2.97 -4 6 C-5.65 5.67 -7.3 5.34 -9 5 C-8.6875 3.0625 -8.6875 3.0625 -8 1 C-5.07175348 0.02391783 -3.04386724 -0.08226668 0 0 Z " fill="#7D6E5B" transform="translate(18,0)"/>
<path d="M0 0 C0.66 0.33 1.32 0.66 2 1 C2 3.64 2 6.28 2 9 C0.02 9 -1.96 9 -4 9 C-3.67 8.34 -3.34 7.68 -3 7 C-2.34 7 -1.68 7 -1 7 C-0.67 4.69 -0.34 2.38 0 0 Z " fill="#11151B" transform="translate(24,26)"/>
<path d="M0 0 C0.33 1.32 0.66 2.64 1 4 C1.99 4 2.98 4 4 4 C4 4.99 4 5.98 4 7 C2.02 7.33 0.04 7.66 -2 8 C-2 6.35 -2 4.7 -2 3 C-1.34 3 -0.68 3 0 3 C0 2.01 0 1.02 0 0 Z " fill="#433A45" transform="translate(8,27)"/>
<path d="M0 0 C0.99 0.33 1.98 0.66 3 1 C3.144375 2.2375 3.28875 3.475 3.4375 4.75 C3.78688502 7.56504499 4.20379366 10.2701497 5 13 C4.34 13 3.68 13 3 13 C0.78145293 8.37802694 -0.38281159 5.23175837 0 0 Z " fill="#553E35" transform="translate(8,5)"/>
<path d="M0 0 C0 2.97 0 5.94 0 9 C-2 7.8125 -2 7.8125 -4 6 C-4.25 3.3125 -4.25 3.3125 -4 1 C-1 0 -1 0 0 0 Z " fill="#7B5042" transform="translate(28,12)"/>
<path d="M0 0 C0.7425 0.0825 1.485 0.165 2.25 0.25 C1.59 1.57 0.93 2.89 0.25 4.25 C-2.06 4.25 -4.37 4.25 -6.75 4.25 C-3.42692308 0.31153846 -3.42692308 0.31153846 0 0 Z " fill="#1C191B" transform="translate(13.75,17.75)"/>
<path d="M0 0 C0.66 0 1.32 0 2 0 C1.5359375 1.1446875 1.5359375 1.1446875 1.0625 2.3125 C0.32106407 4.18789677 -0.36228217 6.08684652 -1 8 C-2.32 8 -3.64 8 -5 8 C-5 7.01 -5 6.02 -5 5 C-4.01 5 -3.02 5 -2 5 C-1.34 3.35 -0.68 1.7 0 0 Z " fill="#C8AB8F" transform="translate(16,1)"/>
<path d="M0 0 C0.66 0 1.32 0 2 0 C2 2.31 2 4.62 2 7 C0.68 7 -0.64 7 -2 7 C-1.125 2.25 -1.125 2.25 0 0 Z " fill="#B18F78" transform="translate(11,24)"/>
<path d="M0 0 C0.99 0 1.98 0 3 0 C3.33 1.65 3.66 3.3 4 5 C2.68 5 1.36 5 0 5 C-0.5625 3.0625 -0.5625 3.0625 -1 1 C-0.67 0.67 -0.34 0.34 0 0 Z " fill="#6E5742" transform="translate(17,4)"/>
<path d="M0 0 C-0.33 1.32 -0.66 2.64 -1 4 C-2.65 4.33 -4.3 4.66 -6 5 C-3.74193548 0 -3.74193548 0 0 0 Z " fill="#505D60" transform="translate(22,29)"/>
<path d="M0 0 C1.32 0.66 2.64 1.32 4 2 C4 2.99 4 3.98 4 5 C2.35 5 0.7 5 -1 5 C-0.67 3.35 -0.34 1.7 0 0 Z " fill="#5F625E" transform="translate(19,17)"/>
</svg>
