<?xml version="1.0" encoding="UTF-8"?>
<svg version="1.1" xmlns="http://www.w3.org/2000/svg" width="25" height="35">
<path d="M0 0 C8.25 0 16.5 0 25 0 C25 11.55 25 23.1 25 35 C16.75 35 8.5 35 0 35 C0 23.45 0 11.9 0 0 Z " fill="#553C35" transform="translate(0,0)"/>
<path d="M0 0 C0.99 0.33 1.98 0.66 3 1 C3.144375 2.2375 3.28875 3.475 3.4375 4.75 C3.78688502 7.56504499 4.20379366 10.2701497 5 13 C5.99 13 6.98 13 8 13 C7.34 14.32 6.68 15.64 6 17 C5.34 17 4.68 17 4 17 C3.01 19.97 2.02 22.94 1 26 C4.9714169 25.37158027 4.9714169 25.37158027 7 23 C7.33 23.66 7.66 24.32 8 25 C11.37088267 22.72584713 11.37088267 22.72584713 13 19 C12.01 19 11.02 19 10 19 C10 18.34 10 17.68 10 17 C13.41756151 16.68931259 15.40106977 16.6374896 18.375 18.4375 C20 21 20 21 20 30 C12.08 30 4.16 30 -4 30 C-3 19 -3 19 -2 16 C0.0625 14.8125 0.0625 14.8125 2 14 C1.43260132 9.87026372 1.43260132 9.87026372 0 6 C-0.039992 4.00039988 -0.04346799 1.99952758 0 0 Z " fill="#262C31" transform="translate(5,5)"/>
<path d="M0 0 C2.75195334 0.28468483 3.79266519 0.76076753 5.625 2.875 C7.62592372 7.4225539 8.27165412 12.10722946 9 17 C7.02 16.67 5.04 16.34 3 16 C2.67 18.31 2.34 20.62 2 23 C2.99 23 3.98 23 5 23 C4.8125 24.8125 4.8125 24.8125 4 27 C-0.09853455 29.94253762 -2.01647998 30 -7 30 C-6.02984658 24.17907948 -4.32619345 21.03778055 0 17 C-0.99 17 -1.98 17 -3 17 C-3.50833591 15.75336669 -4.00631145 14.50250613 -4.5 13.25 C-4.7784375 12.55390625 -5.056875 11.8578125 -5.34375 11.140625 C-6 9 -6 9 -6 5 C-4.68 5 -3.36 5 -2 5 C-1.34 3.35 -0.68 1.7 0 0 Z " fill="#A48A70" transform="translate(13,1)"/>
<path d="M0 0 C0.99 0 1.98 0 3 0 C4.52846661 3.05693322 4.23242445 5.62984547 4 9 C3 10.33333333 2 11.66666667 1 13 C0.74936268 16.66714849 0.74936268 16.66714849 1 20 C1.99 20 2.98 20 4 20 C3.8125 21.8125 3.8125 21.8125 3 24 C-1.09853455 26.94253762 -3.01647998 27 -8 27 C-7.44509362 23.67056175 -6.79000672 20.88389972 -5 18 C-4.01 17.34 -3.02 16.68 -2 16 C-1.32843384 14.06381575 -1.32843384 14.06381575 -1 12 C-0.67 11.01 -0.34 10.02 0 9 C-0.13019419 6.9670885 -0.13019419 6.9670885 -0.5 4.875 C-0.665 3.59625 -0.83 2.3175 -1 1 C-0.67 0.67 -0.34 0.34 0 0 Z " fill="#987159" transform="translate(14,4)"/>
<path d="M0 0 C3.3 0 6.6 0 10 0 C9.01 0.33 8.02 0.66 7 1 C7 1.66 7 2.32 7 3 C6.01 3.66 5.02 4.32 4 5 C3.13571552 9.31294901 3.50721324 13.0735609 5.5625 16.9375 C6.036875 17.618125 6.51125 18.29875 7 19 C6.67 19.66 6.34 20.32 6 21 C5.01 21 4.02 21 3 21 C2.95101563 21.75925781 2.90203125 22.51851562 2.8515625 23.30078125 C2.77679688 24.29464844 2.70203125 25.28851562 2.625 26.3125 C2.52058594 27.79169922 2.52058594 27.79169922 2.4140625 29.30078125 C2 32 2 32 0 35 C0 23.45 0 11.9 0 0 Z " fill="#47514E" transform="translate(0,0)"/>
<path d="M0 0 C3.41756151 -0.31068741 5.40106977 -0.3625104 8.375 1.4375 C10.76173366 5.20119538 10.33387931 8.65956893 10 13 C9.34 13 8.68 13 8 13 C7.67 10.36 7.34 7.72 7 5 C6.34 6.98 5.68 8.96 5 11 C2.69 11.33 0.38 11.66 -2 12 C-0.66511872 8.40608886 0.96022723 5.24509304 3 2 C2.01 2 1.02 2 0 2 C0 1.34 0 0.68 0 0 Z " fill="#30373C" transform="translate(15,22)"/>
<path d="M0 0 C-1.98 2.97 -1.98 2.97 -4 6 C-6.97 5.505 -6.97 5.505 -10 5 C-9.690625 6.19625 -9.38125 7.3925 -9.0625 8.625 C-8.19968427 12.06402439 -7.52629514 15.49136573 -7 19 C-7.66 19 -8.32 19 -9 19 C-12.66641647 14.62850344 -12.31749488 10.39741292 -12 5 C-10.68 4.34 -9.36 3.68 -8 3 C-8 2.34 -8 1.68 -8 1 C-5.07175348 0.02391783 -3.04386724 -0.08226668 0 0 Z " fill="#71695A" transform="translate(15,0)"/>
<path d="M0 0 C0.66 0.33 1.32 0.66 2 1 C2 3.64 2 6.28 2 9 C-3.61 9 -9.22 9 -15 9 C-14.01 8.67 -13.02 8.34 -12 8 C-11.40929986 6.05396726 -11.40929986 6.05396726 -11 4 C-10.34 3.34 -9.68 2.68 -9 2 C-8.67 2.66 -8.34 3.32 -8 4 C-7.34 3.67 -6.68 3.34 -6 3 C-6.66 4.65 -7.32 6.3 -8 8 C-4.535 7.505 -4.535 7.505 -1 7 C-0.67 4.69 -0.34 2.38 0 0 Z " fill="#2D2A31" transform="translate(21,26)"/>
<path d="M0 0 C0.33 0.99 0.66 1.98 1 3 C2.32 3 3.64 3 5 3 C5.33 2.01 5.66 1.02 6 0 C6.41713515 1.43146378 6.8080497 2.87058886 7.1875 4.3125 C7.40792969 5.11300781 7.62835937 5.91351563 7.85546875 6.73828125 C8 9 8 9 6.67578125 10.79296875 C5 12 5 12 3 12 C2.49166409 10.75336669 1.99368855 9.50250613 1.5 8.25 C1.2215625 7.55390625 0.943125 6.8578125 0.65625 6.140625 C0 4 0 4 0 0 Z " fill="#AC826D" transform="translate(7,6)"/>
<path d="M0 0 C2.49824035 1.4976696 4.86004673 3.01558218 7 5 C7.4375 7.8125 7.4375 7.8125 7 10 C5.68 9.34 4.36 8.68 3 8 C3 7.34 3 6.68 3 6 C1.02 6 -0.96 6 -3 6 C-2.625 3.5625 -2.625 3.5625 -2 1 C-1.34 0.67 -0.68 0.34 0 0 Z " fill="#5A605D" transform="translate(18,16)"/>
<path d="M0 0 C0.99 0 1.98 0 3 0 C4.5547669 3.10953379 4.28644437 5.56266761 4 9 C2 12.4375 2 12.4375 0 15 C-0.66 14.34 -1.32 13.68 -2 13 C-1.649375 12.505 -1.29875 12.01 -0.9375 11.5 C0.44972255 7.80073987 -0.4263757 4.88789806 -1 1 C-0.67 0.67 -0.34 0.34 0 0 Z " fill="#805E4A" transform="translate(14,4)"/>
<path d="M0 0 C3.3 0 6.6 0 10 0 C9.01 0.33 8.02 0.66 7 1 C7 1.66 7 2.32 7 3 C5.71034824 4.37562854 4.37310707 5.70766393 3 7 C2.34 7.66 1.68 8.32 1 9 C0 8 0 8 -0.09765625 6.15234375 C-0.06510417 4.1015625 -0.03255208 2.05078125 0 0 Z " fill="#2C3B3F" transform="translate(0,0)"/>
<path d="M0 0 C3.3 0 6.6 0 10 0 C10 1.98 10 3.96 10 6 C9.67 5.34 9.34 4.68 9 4 C7.02 4.99 7.02 4.99 5 6 C3.35 4.02 1.7 2.04 0 0 Z " fill="#3A3130" transform="translate(15,0)"/>
<path d="M0 0 C0.598125 0.226875 1.19625 0.45375 1.8125 0.6875 C1.625 2.5 1.625 2.5 0.8125 4.6875 C-1.625 6.5 -1.625 6.5 -4.1875 7.6875 C-4.8475 7.3575 -5.5075 7.0275 -6.1875 6.6875 C-5.78066505 4.32785727 -5.28935661 2.82815912 -3.875 0.875 C-2.1875 -0.3125 -2.1875 -0.3125 0 0 Z " fill="#666864" transform="translate(16.1875,23.3125)"/>
<path d="M0 0 C-1.98 2.97 -1.98 2.97 -4 6 C-5.65 5.67 -7.3 5.34 -9 5 C-8.6875 3.0625 -8.6875 3.0625 -8 1 C-5.07175348 0.02391783 -3.04386724 -0.08226668 0 0 Z " fill="#7D6E5B" transform="translate(15,0)"/>
<path d="M0 0 C0.66 0.33 1.32 0.66 2 1 C2 3.64 2 6.28 2 9 C0.02 9 -1.96 9 -4 9 C-3.67 8.34 -3.34 7.68 -3 7 C-2.34 7 -1.68 7 -1 7 C-0.67 4.69 -0.34 2.38 0 0 Z " fill="#11151B" transform="translate(21,26)"/>
<path d="M0 0 C0.33 1.32 0.66 2.64 1 4 C1.99 4 2.98 4 4 4 C4 4.99 4 5.98 4 7 C2.02 7.33 0.04 7.66 -2 8 C-2 6.35 -2 4.7 -2 3 C-1.34 3 -0.68 3 0 3 C0 2.01 0 1.02 0 0 Z " fill="#433A45" transform="translate(5,27)"/>
<path d="M0 0 C0.99 0.33 1.98 0.66 3 1 C3.144375 2.2375 3.28875 3.475 3.4375 4.75 C3.78688502 7.56504499 4.20379366 10.2701497 5 13 C4.34 13 3.68 13 3 13 C0.78145293 8.37802694 -0.38281159 5.23175837 0 0 Z " fill="#553E35" transform="translate(5,5)"/>
<path d="M0 0 C0 2.97 0 5.94 0 9 C-2 7.8125 -2 7.8125 -4 6 C-4.25 3.3125 -4.25 3.3125 -4 1 C-1 0 -1 0 0 0 Z " fill="#7B5042" transform="translate(25,12)"/>
<path d="M0 0 C0.7425 0.0825 1.485 0.165 2.25 0.25 C1.59 1.57 0.93 2.89 0.25 4.25 C-2.06 4.25 -4.37 4.25 -6.75 4.25 C-3.42692308 0.31153846 -3.42692308 0.31153846 0 0 Z " fill="#1C191B" transform="translate(10.75,17.75)"/>
<path d="M0 0 C0.66 0 1.32 0 2 0 C1.5359375 1.1446875 1.5359375 1.1446875 1.0625 2.3125 C0.32106407 4.18789677 -0.36228217 6.08684652 -1 8 C-2.32 8 -3.64 8 -5 8 C-5 7.01 -5 6.02 -5 5 C-4.01 5 -3.02 5 -2 5 C-1.34 3.35 -0.68 1.7 0 0 Z " fill="#C8AB8F" transform="translate(13,1)"/>
<path d="M0 0 C0.66 0 1.32 0 2 0 C2 2.31 2 4.62 2 7 C0.68 7 -0.64 7 -2 7 C-1.125 2.25 -1.125 2.25 0 0 Z " fill="#B18F78" transform="translate(8,24)"/>
<path d="M0 0 C0.99 0 1.98 0 3 0 C3.33 1.65 3.66 3.3 4 5 C2.68 5 1.36 5 0 5 C-0.5625 3.0625 -0.5625 3.0625 -1 1 C-0.67 0.67 -0.34 0.34 0 0 Z " fill="#6E5742" transform="translate(14,4)"/>
<path d="M0 0 C-0.33 1.32 -0.66 2.64 -1 4 C-2.65 4.33 -4.3 4.66 -6 5 C-3.74193548 0 -3.74193548 0 0 0 Z " fill="#505D60" transform="translate(19,29)"/>
</svg>
