<!DOCTYPE svg PUBLIC "-//W3C//DTD SVG 1.1//EN" "http://www.w3.org/Graphics/SVG/1.1/DTD/svg11.dtd">
<!-- Uploaded to: SVG Repo, www.svgrepo.com, Transformed by: SVG Repo Mixer Tools -->
<svg fill="#69e5e8" width="204px" height="204px" viewBox="-6.72 -6.72 37.44 37.44" role="img" xmlns="http://www.w3.org/2000/svg" stroke="#69e5e8" stroke-width="0.00024000000000000003">
<g id="SVGRepo_bgCarrier" stroke-width="0" transform="translate(0,0), scale(1)">
<path transform="translate(-6.72, -6.72), scale(1.17)" d="M16,30.869679124560207C19.14853198705024,31.499057125502407,22.54759396775437,30.472999235003492,25.099279934205597,28.524084390746715C27.620044760836322,26.598786350904675,29.46727812232931,23.603995046990658,29.65825918337309,20.43783742493189C29.833262393759068,17.536566767935703,27.331645613503966,15.343556945238522,26.051730322635322,12.733994836954238C25.00632788847978,10.60257051571732,24.451654558733928,8.322038052062203,22.854392643648765,6.565737889471231C20.9194288532781,4.438111112960721,18.86585343157156,1.4410779468320878,16,1.681420783046633C13.102227228424253,1.924440512860199,12.354110483678157,6.038795671346559,9.932925183625679,7.649387912596417C7.328560373152198,9.381832660646815,2.751719330980359,8.418073710309706,1.5386564565993908,11.30122464875857C0.3513332622413323,14.123198723105233,3.435078032955757,16.918764908647997,4.902339264213715,19.60584855516753C6.077648392872305,21.75826277558278,7.487400072879969,23.600657269473558,9.208571039201694,25.347600035807115C11.307678957147726,27.47813875901485,13.06712793719828,30.283410614823794,16,30.869679124560207" fill="#1b1d1d" strokewidth="0"/>
</g>
<g id="SVGRepo_tracerCarrier" stroke-linecap="round" stroke-linejoin="round" stroke="#CCCCCC" stroke-width="0.528"/>
<g id="SVGRepo_iconCarrier">
<path d="M19.536 9.146c-1.373 0-2.133 1.014-2.294 2.116h4.608c-.125-1.05-.867-2.115-2.314-2.115m-2.26 3.617c.235 1.156 1.193 1.97 2.532 1.97.725 0 1.77-.27 2.384-.914l1.175 1.35c-1.064 1.11-2.653 1.426-3.74 1.426-2.64 0-4.697-1.906-4.697-4.606 0-2.535 1.894-4.62 4.57-4.62 2.585 0 4.5 1.98 4.5 4.604v.766h-6.723v.023zm-6.487 3.83v-5.69c0-.976-.435-1.536-1.338-1.536-.814 0-1.355.585-1.717 1.007v6.24h-2.35v-5.7c0-.976-.415-1.532-1.318-1.532-.813 0-1.375.586-1.717 1.006v6.24H0V7.505h2.35v1.15c.4-.463 1.302-1.26 2.71-1.26 1.247 0 2.096.526 2.477 1.59.524-.761 1.5-1.59 2.91-1.59 1.7 0 2.69 1.01 2.69 2.963v6.24h-2.353l.005-.007z"/>
</g>
</svg>