<svg width="800px" height="800px" viewBox="0 0 1024 1024" class="icon" version="1.1" xmlns="http://www.w3.org/2000/svg" style=""><path d="M889.4 322.1h-131c-1.4 0-2.5-1.1-2.5-2.5V169.7c0-1.4 1.1-2.5 2.5-2.5h131c13.7 0 24.8 11.1 24.8 24.8v105.4c0 13.6-11.1 24.7-24.8 24.7z" fill="#9DC6AF" style="fill:rgb(157, 198, 175);stroke:none;color:rgb(255, 255, 255);stroke-width:1px;stroke-linecap:butt;stroke-linejoin:miter;opacity:1;font-family:&quot;Anthropic Sans&quot;, -apple-system, &quot;system-ui&quot;, &quot;Segoe UI&quot;, sans-serif;font-size:16px;font-weight:400;text-anchor:start;dominant-baseline:auto"/><path d="M889.4 335.1h-131c-8.6 0-15.5-7-15.5-15.5V169.7c0-8.6 7-15.5 15.5-15.5h131c20.8 0 37.8 16.9 37.8 37.8v105.4c0 20.7-17 37.7-37.8 37.7z m-120.5-26h120.5c6.5 0 11.8-5.3 11.8-11.8V191.9c0-6.5-5.3-11.8-11.8-11.8H768.9v129z" fill="#191919" style="fill:rgb(25, 25, 25);stroke:none;color:rgb(255, 255, 255);stroke-width:1px;stroke-linecap:butt;stroke-linejoin:miter;opacity:1;font-family:&quot;Anthropic Sans&quot;, -apple-system, &quot;system-ui&quot;, &quot;Segoe UI&quot;, sans-serif;font-size:16px;font-weight:400;text-anchor:start;dominant-baseline:auto"/><path d="M864.2 479.6h-131c-1.4 0-2.5-1.1-2.5-2.5V327.2c0-1.4 1.1-2.5 2.5-2.5h131c13.7 0 24.8 11.1 24.8 24.8v105.4c0 13.6-11.1 24.7-24.8 24.7z" fill="#D39E33" style="fill:rgb(211, 158, 51);stroke:none;color:rgb(255, 255, 255);stroke-width:1px;stroke-linecap:butt;stroke-linejoin:miter;opacity:1;font-family:&quot;Anthropic Sans&quot;, -apple-system, &quot;system-ui&quot;, &quot;Segoe UI&quot;, sans-serif;font-size:16px;font-weight:400;text-anchor:start;dominant-baseline:auto"/><path d="M864.2 492.6h-131c-8.6 0-15.5-7-15.5-15.5V327.2c0-8.6 7-15.5 15.5-15.5h131c20.8 0 37.8 16.9 37.8 37.8v105.4c0 20.8-17 37.7-37.8 37.7z m-120.5-26h120.5c6.5 0 11.8-5.3 11.8-11.8V349.5c0-6.5-5.3-11.8-11.8-11.8H743.7v128.9z" fill="#111111" style="fill:rgb(17, 17, 17);stroke:none;color:rgb(255, 255, 255);stroke-width:1px;stroke-linecap:butt;stroke-linejoin:miter;opacity:1;font-family:&quot;Anthropic Sans&quot;, -apple-system, &quot;system-ui&quot;, &quot;Segoe UI&quot;, sans-serif;font-size:16px;font-weight:400;text-anchor:start;dominant-baseline:auto"/><path d="M864.2 628.4h-131c-1.4 0-2.5-1.1-2.5-2.5V476c0-1.4 1.1-2.5 2.5-2.5h138.2c9.7 0 17.6 7.9 17.6 17.6v112.6c0 13.6-11.1 24.7-24.8 24.7z" fill="#845A3D" style="fill:rgb(132, 90, 61);stroke:none;color:rgb(255, 255, 255);stroke-width:1px;stroke-linecap:butt;stroke-linejoin:miter;opacity:1;font-family:&quot;Anthropic Sans&quot;, -apple-system, &quot;system-ui&quot;, &quot;Segoe UI&quot;, sans-serif;font-size:16px;font-weight:400;text-anchor:start;dominant-baseline:auto"/><path d="M864.2 641.4h-131c-8.6 0-15.5-7-15.5-15.5V476c0-8.6 7-15.5 15.5-15.5h138.2c16.9 0 30.6 13.7 30.6 30.6v112.6c0 20.7-17 37.7-37.8 37.7z m-120.5-26h120.5c6.5 0 11.8-5.3 11.8-11.8V491c0-2.5-2.1-4.6-4.6-4.6H743.7v129z" fill="#141414" style="fill:rgb(20, 20, 20);stroke:none;color:rgb(255, 255, 255);stroke-width:1px;stroke-linecap:butt;stroke-linejoin:miter;opacity:1;font-family:&quot;Anthropic Sans&quot;, -apple-system, &quot;system-ui&quot;, &quot;Segoe UI&quot;, sans-serif;font-size:16px;font-weight:400;text-anchor:start;dominant-baseline:auto"/><path d="M747.7 961.1H255.5c-52.2 0-94.5-42.3-94.5-94.5V102.3c0-27.3 22.2-49.5 49.5-49.5h582.2c27.3 0 49.5 22.2 49.5 49.5v764.2c0 52.2-42.3 94.6-94.5 94.6z" fill="#9DC6AF" style="fill:rgb(157, 198, 175);stroke:none;color:rgb(255, 255, 255);stroke-width:1px;stroke-linecap:butt;stroke-linejoin:miter;opacity:1;font-family:&quot;Anthropic Sans&quot;, -apple-system, &quot;system-ui&quot;, &quot;Segoe UI&quot;, sans-serif;font-size:16px;font-weight:400;text-anchor:start;dominant-baseline:auto"/><path d="M747.7 974.1H255.5c-59.3 0-107.5-48.2-107.5-107.5V102.3c0-34.5 28-62.5 62.5-62.5h582.2c34.5 0 62.5 28 62.5 62.5v764.2c0 59.3-48.2 107.6-107.5 107.6zM210.5 65.8c-20.1 0-36.5 16.4-36.5 36.5v764.2c0 45 36.6 81.5 81.5 81.5h492.1c45 0 81.5-36.6 81.5-81.5V102.3c0-20.1-16.4-36.5-36.5-36.5H210.5z" fill="#191919" style="fill:rgb(25, 25, 25);stroke:none;color:rgb(255, 255, 255);stroke-width:1px;stroke-linecap:butt;stroke-linejoin:miter;opacity:1;font-family:&quot;Anthropic Sans&quot;, -apple-system, &quot;system-ui&quot;, &quot;Segoe UI&quot;, sans-serif;font-size:16px;font-weight:400;text-anchor:start;dominant-baseline:auto"/>

  <!-- ▼ NOTEBOOK PAGE BACKGROUND COLOR — change fill here (currently soft pink #FFE4E8)   style: fill:rgb(255, 228, 232)-->
  <path d="M791.4 877.5H211.8c-28.1 0-50.8-22.7-50.8-50.8V103.6c0-28.1 22.7-50.8 50.8-50.8h579.6c28.1 0 50.8 22.7 50.8 50.8v723.1c0 28.1-22.7 50.8-50.8 50.8z" fill="#FFE4E8" style="fill:#0000;stroke:none;color:rgb(255, 255, 255);stroke-width:1px;stroke-linecap:butt;stroke-linejoin:miter;opacity:1;font-family:&quot;Anthropic Sans&quot;, -apple-system, &quot;system-ui&quot;, &quot;Segoe UI&quot;, sans-serif;font-size:16px;font-weight:400;text-anchor:start;dominant-baseline:auto"/>
  <!-- ▲ NOTEBOOK PAGE BACKGROUND COLOR — end -->

  <!-- ▼ NOTEBOOK PAGE BORDER + BACKGROUND (inner subpath also fills page) — change fill here too -->
  <path d="M791.4 890.5H211.8c-35.2 0-63.8-28.6-63.8-63.8V103.6c0-35.2 28.6-63.8 63.8-63.8h579.6c35.2 0 63.8 28.6 63.8 63.8v723.1c0 35.2-28.6 63.8-63.8 63.8zM211.8 65.8c-20.8 0-37.8 17-37.8 37.8v723.1c0 20.8 17 37.8 37.8 37.8h579.6c20.8 0 37.8-17 37.8-37.8V103.6c0-20.8-17-37.8-37.8-37.8H211.8z" fill="#0F0F0F" style="fill:rgb(15, 15, 15);stroke:none;color:rgb(255, 255, 255);stroke-width:1px;stroke-linecap:butt;stroke-linejoin:miter;opacity:1;font-family:&quot;Anthropic Sans&quot;, -apple-system, &quot;system-ui&quot;, &quot;Segoe UI&quot;, sans-serif;font-size:16px;font-weight:400;text-anchor:start;dominant-baseline:auto"/>
  <!-- ▲ NOTEBOOK PAGE BORDER — end (keep fill #0F0F0F, that's the dark outline) -->
<g transform="scale(1.6)" transform-origin="505 394">
  <!-- Eyes: ^ ^ -->
  <path d="M320 355 L358 320 L396 355" transform="translate(40, 0)" fill="none" stroke="#0F0F0F" stroke-width="32" stroke-linecap="round" stroke-linejoin="round" style="fill:none;stroke:rgb(15, 15, 15);color:rgb(255, 255, 255);stroke-width:22px;stroke-linecap:round;stroke-linejoin:round;opacity:1;font-family:&quot;Anthropic Sans&quot;, -apple-system, &quot;system-ui&quot;, &quot;Segoe UI&quot;, sans-serif;font-size:16px;font-weight:400;text-anchor:start;dominant-baseline:auto"/>
  <path d="M615 355 L653 320 L691 355" transform="translate(-40, 0)" fill="none" stroke="#0F0F0F" stroke-width="32" stroke-linecap="round" stroke-linejoin="round" style="fill:none;stroke:rgb(15, 15, 15);color:rgb(255, 255, 255);stroke-width:22px;stroke-linecap:round;stroke-linejoin:round;opacity:1;font-family:&quot;Anthropic Sans&quot;, -apple-system, &quot;system-ui&quot;, &quot;Segoe UI&quot;, sans-serif;font-size:16px;font-weight:400;text-anchor:start;dominant-baseline:auto"/>
  <!-- Mouth: _ -->
  <line x1="435" y1="468" x2="575" y2="468" stroke="#0F0F0F" stroke-width="22" stroke-linecap="round" style="fill:rgb(0, 0, 0);stroke:rgb(15, 15, 15);color:rgb(255, 255, 255);stroke-width:22px;stroke-linecap:round;stroke-linejoin:miter;opacity:1;font-family:&quot;Anthropic Sans&quot;, -apple-system, &quot;system-ui&quot;, &quot;Segoe UI&quot;, sans-serif;font-size:16px;font-weight:400;text-anchor:start;dominant-baseline:auto"/>
</g>
<path d="M198.2 184.1h-86.4c-9.4 0-17-7.6-17-17s7.6-17 17-17h86.4c9.4 0 17 7.6 17 17s-7.6 17-17 17zM198.2 278.1h-86.4c-9.4 0-17-7.6-17-17s7.6-17 17-17h86.4c9.4 0 17 7.6 17 17s-7.6 17-17 17zM198.2 372h-86.4c-9.4 0-17-7.6-17-17s7.6-17 17-17h86.4c9.4 0 17 7.6 17 17s-7.6 17-17 17zM198.2 466h-86.4c-9.4 0-17-7.6-17-17s7.6-17 17-17h86.4c9.4 0 17 7.6 17 17s-7.6 17-17 17zM198.2 559.9h-86.4c-9.4 0-17-7.6-17-17s7.6-17 17-17h86.4c9.4 0 17 7.6 17 17s-7.6 17-17 17zM198.2 653.8h-86.4c-9.4 0-17-7.6-17-17s7.6-17 17-17h86.4c9.4 0 17 7.6 17 17s-7.6 17-17 17zM198.2 747.8h-86.4c-9.4 0-17-7.6-17-17s7.6-17 17-17h86.4c9.4 0 17 7.6 17 17s-7.6 17-17 17z" fill="#0F0F0F" style="fill:rgb(15, 15, 15);stroke:none;color:rgb(255, 255, 255);stroke-width:1px;stroke-linecap:butt;stroke-linejoin:miter;opacity:1;font-family:&quot;Anthropic Sans&quot;, -apple-system, &quot;system-ui&quot;, &quot;Segoe UI&quot;, sans-serif;font-size:16px;font-weight:400;text-anchor:start;dominant-baseline:auto"/></svg>
